<svg width="46" height="46" viewBox="0 0 46 46" fill="none" xmlns="http://www.w3.org/2000/svg">
<mask id="path-1-outside-1_4558_286" maskUnits="userSpaceOnUse" x="0.0737362" y="0.353516" width="46" height="46" fill="black">
<rect fill="white" x="0.0737362" y="0.353516" width="46" height="46"/>
<path d="M22.0947 1.92862C22.4546 1.16182 23.5453 1.16181 23.9052 1.92862L29.8806 14.6592C30.0223 14.9611 30.3052 15.1725 30.6348 15.2229L44.0762 17.2765C44.8808 17.3994 45.2093 18.3808 44.6409 18.9634L34.8524 28.9958C34.6308 29.223 34.5301 29.5419 34.5812 29.8552L36.8832 43.9675C37.0176 44.7914 36.143 45.4076 35.4125 45.0037L23.4838 38.4097C23.1827 38.2433 22.8172 38.2433 22.5162 38.4097L10.5875 45.0037C9.8569 45.4076 8.98233 44.7914 9.11672 43.9675L11.4187 29.8552C11.4698 29.5419 11.3692 29.223 11.1475 28.9958L1.35905 18.9634C0.790636 18.3808 1.11917 17.3994 1.92377 17.2765L15.3651 15.2229C15.6948 15.1725 15.9776 14.9611 16.1193 14.6592L22.0947 1.92862Z"/>
</mask>
<path d="M22.0947 1.92862C22.4546 1.16182 23.5453 1.16181 23.9052 1.92862L29.8806 14.6592C30.0223 14.9611 30.3052 15.1725 30.6348 15.2229L44.0762 17.2765C44.8808 17.3994 45.2093 18.3808 44.6409 18.9634L34.8524 28.9958C34.6308 29.223 34.5301 29.5419 34.5812 29.8552L36.8832 43.9675C37.0176 44.7914 36.143 45.4076 35.4125 45.0037L23.4838 38.4097C23.1827 38.2433 22.8172 38.2433 22.5162 38.4097L10.5875 45.0037C9.8569 45.4076 8.98233 44.7914 9.11672 43.9675L11.4187 29.8552C11.4698 29.5419 11.3692 29.223 11.1475 28.9958L1.35905 18.9634C0.790636 18.3808 1.11917 17.3994 1.92377 17.2765L15.3651 15.2229C15.6948 15.1725 15.9776 14.9611 16.1193 14.6592L22.0947 1.92862Z" fill="#F5F5F5"/>
<path d="M15.3651 15.2229L15.4406 15.7171L15.3651 15.2229ZM1.92377 17.2765L1.84825 16.7822L1.92377 17.2765ZM11.1475 28.9958L11.5054 28.6466L11.1475 28.9958ZM10.5875 45.0037L10.3456 44.5661L10.5875 45.0037ZM9.11672 43.9675L8.62324 43.8871L9.11672 43.9675ZM23.4838 38.4097L23.7257 37.9721L23.4838 38.4097ZM22.5162 38.4097L22.2743 37.9721L22.5162 38.4097ZM36.8832 43.9675L36.3897 44.048L36.8832 43.9675ZM35.4125 45.0037L35.1706 45.4413L35.4125 45.0037ZM34.8524 28.9958L35.2103 29.345L34.8524 28.9958ZM34.5812 29.8552L35.0747 29.7747L34.5812 29.8552ZM44.0762 17.2765L44.0007 17.7708L44.0762 17.2765ZM44.6409 18.9634L44.283 18.6142L44.6409 18.9634ZM30.6348 15.2229L30.5593 15.7171L30.6348 15.2229ZM22.0947 1.92862L21.6421 1.71617L22.0947 1.92862ZM23.9052 1.92862L23.4526 2.14107L29.428 14.8717L29.8806 14.6592L30.3333 14.4468L24.3578 1.71617L23.9052 1.92862ZM30.6348 15.2229L30.5593 15.7171L44.0007 17.7708L44.0762 17.2765L44.1517 16.7822L30.7104 14.7286L30.6348 15.2229ZM44.6409 18.9634L44.283 18.6142L34.4945 28.6466L34.8524 28.9958L35.2103 29.345L44.9988 19.3126L44.6409 18.9634ZM34.5812 29.8552L34.0877 29.9356L36.3897 44.048L36.8832 43.9675L37.3767 43.8871L35.0747 29.7747L34.5812 29.8552ZM35.4125 45.0037L35.6544 44.5661L23.7257 37.9721L23.4838 38.4097L23.2419 38.8473L35.1706 45.4413L35.4125 45.0037ZM22.5162 38.4097L22.2743 37.9721L10.3456 44.5661L10.5875 45.0037L10.8294 45.4413L22.7581 38.8473L22.5162 38.4097ZM9.11672 43.9675L9.6102 44.048L11.9122 29.9356L11.4187 29.8552L10.9252 29.7747L8.62324 43.8871L9.11672 43.9675ZM11.1475 28.9958L11.5054 28.6466L1.71693 18.6142L1.35905 18.9634L1.00117 19.3126L10.7896 29.345L11.1475 28.9958ZM1.92377 17.2765L1.99929 17.7708L15.4406 15.7171L15.3651 15.2229L15.2896 14.7286L1.84825 16.7822L1.92377 17.2765ZM16.1193 14.6592L16.5719 14.8717L22.5473 2.14107L22.0947 1.92862L21.6421 1.71617L15.6667 14.4468L16.1193 14.6592ZM15.3651 15.2229L15.4406 15.7171C15.9351 15.6416 16.3594 15.3245 16.5719 14.8717L16.1193 14.6592L15.6667 14.4468C15.5958 14.5977 15.4544 14.7034 15.2896 14.7286L15.3651 15.2229ZM1.35905 18.9634L1.71693 18.6142C1.43272 18.3229 1.59699 17.8322 1.99929 17.7708L1.92377 17.2765L1.84825 16.7822C0.641358 16.9666 0.148552 18.4387 1.00117 19.3126L1.35905 18.9634ZM11.4187 29.8552L11.9122 29.9356C11.9888 29.4658 11.8379 28.9874 11.5054 28.6466L11.1475 28.9958L10.7896 29.345C10.9005 29.4586 10.9508 29.618 10.9252 29.7747L11.4187 29.8552ZM10.5875 45.0037L10.3456 44.5661C9.98029 44.7681 9.543 44.46 9.6102 44.048L9.11672 43.9675L8.62324 43.8871C8.42166 45.1229 9.73351 46.0471 10.8294 45.4413L10.5875 45.0037ZM23.4838 38.4097L23.7257 37.9721C23.2741 37.7225 22.7259 37.7225 22.2743 37.9721L22.5162 38.4097L22.7581 38.8473C22.9086 38.7641 23.0913 38.7641 23.2419 38.8473L23.4838 38.4097ZM36.8832 43.9675L36.3897 44.048C36.4569 44.46 36.0197 44.7681 35.6544 44.5661L35.4125 45.0037L35.1706 45.4413C36.2664 46.0471 37.5783 45.1229 37.3767 43.8871L36.8832 43.9675ZM34.8524 28.9958L34.4945 28.6466C34.1621 28.9874 34.0111 29.4658 34.0877 29.9356L34.5812 29.8552L35.0747 29.7747C35.0492 29.618 35.0995 29.4586 35.2103 29.345L34.8524 28.9958ZM44.0762 17.2765L44.0007 17.7708C44.403 17.8322 44.5672 18.3229 44.283 18.6142L44.6409 18.9634L44.9988 19.3126C45.8514 18.4387 45.3586 16.9666 44.1517 16.7822L44.0762 17.2765ZM29.8806 14.6592L29.428 14.8717C29.6406 15.3245 30.0648 15.6416 30.5593 15.7171L30.6348 15.2229L30.7104 14.7286C30.5455 14.7034 30.4041 14.5977 30.3333 14.4468L29.8806 14.6592ZM23.9052 1.92862L24.3578 1.71617C23.818 0.565964 22.182 0.565965 21.6421 1.71617L22.0947 1.92862L22.5473 2.14107C22.7273 1.75767 23.2726 1.75767 23.4526 2.14107L23.9052 1.92862Z" fill="#D1D1D1" mask="url(#path-1-outside-1_4558_286)"/>
</svg>
