<svg width="46" height="46" viewBox="0 0 46 46" fill="none" xmlns="http://www.w3.org/2000/svg">
<path d="M22.0947 1.92862C22.4546 1.16182 23.5453 1.16181 23.9052 1.92862L29.8806 14.6592C30.0223 14.9611 30.3052 15.1725 30.6348 15.2229L44.0762 17.2765C44.8808 17.3994 45.2093 18.3808 44.6409 18.9634L34.8524 28.9958C34.6308 29.223 34.5301 29.5419 34.5812 29.8552L36.8832 43.9675C37.0176 44.7914 36.143 45.4076 35.4125 45.0037L23.4838 38.4097C23.1827 38.2433 22.8172 38.2433 22.5162 38.4097L10.5875 45.0037C9.8569 45.4076 8.98233 44.7914 9.11672 43.9675L11.4187 29.8552C11.4698 29.5419 11.3692 29.223 11.1475 28.9958L1.35905 18.9634C0.790638 18.3808 1.11917 17.3994 1.92377 17.2765L15.3651 15.2229C15.6948 15.1725 15.9776 14.9611 16.1193 14.6592L22.0947 1.92862Z" fill="#F4A316" fill-opacity="0.4"/>
<mask id="path-2-outside-1_4558_276" maskUnits="userSpaceOnUse" x="0.073761" y="0.111328" width="46" height="46" fill="black">
<rect fill="white" x="0.073761" y="0.111328" width="46" height="46"/>
<path d="M22.0948 1.68643C22.4547 0.919628 23.5453 0.919627 23.9052 1.68643L29.8807 14.417C30.0224 14.7189 30.3052 14.9303 30.6349 14.9807L44.0762 17.0343C44.8808 17.1573 45.2093 18.1386 44.6409 18.7212L34.8524 28.7536C34.6308 28.9808 34.5301 29.2997 34.5812 29.613L36.8832 43.7254C37.0176 44.5492 36.1431 45.1654 35.4125 44.7615L23.4838 38.1675C23.1827 38.0011 22.8173 38.0011 22.5162 38.1675L10.5875 44.7615C9.85692 45.1654 8.98236 44.5492 9.11674 43.7254L11.4187 29.613C11.4698 29.2997 11.3692 28.9808 11.1475 28.7536L1.35907 18.7212C0.790661 18.1386 1.1192 17.1573 1.92379 17.0343L15.3651 14.9807C15.6948 14.9303 15.9776 14.7189 16.1193 14.417L22.0948 1.68643Z"/>
</mask>
<path d="M22.0948 1.68643C22.4547 0.919628 23.5453 0.919627 23.9052 1.68643L29.8807 14.417C30.0224 14.7189 30.3052 14.9303 30.6349 14.9807L44.0762 17.0343C44.8808 17.1573 45.2093 18.1386 44.6409 18.7212L34.8524 28.7536C34.6308 28.9808 34.5301 29.2997 34.5812 29.613L36.8832 43.7254C37.0176 44.5492 36.1431 45.1654 35.4125 44.7615L23.4838 38.1675C23.1827 38.0011 22.8173 38.0011 22.5162 38.1675L10.5875 44.7615C9.85692 45.1654 8.98236 44.5492 9.11674 43.7254L11.4187 29.613C11.4698 29.2997 11.3692 28.9808 11.1475 28.7536L1.35907 18.7212C0.790661 18.1386 1.1192 17.1573 1.92379 17.0343L15.3651 14.9807C15.6948 14.9303 15.9776 14.7189 16.1193 14.417L22.0948 1.68643Z" fill="#F5F5F5"/>
<path d="M15.3651 14.9807L15.4406 15.4749L15.3651 14.9807ZM1.92379 17.0343L1.84828 16.5401L1.92379 17.0343ZM11.1475 28.7536L11.5054 28.4044L11.1475 28.7536ZM10.5875 44.7615L10.3456 44.3239L10.5875 44.7615ZM9.11674 43.7254L8.62327 43.6449L9.11674 43.7254ZM23.4838 38.1675L23.7257 37.7299L23.4838 38.1675ZM22.5162 38.1675L22.2743 37.7299L22.5162 38.1675ZM36.8832 43.7254L36.3898 43.8059L36.8832 43.7254ZM35.4125 44.7615L35.1706 45.1991L35.4125 44.7615ZM34.8524 28.7536L35.2103 29.1028L34.8524 28.7536ZM34.5812 29.613L35.0747 29.5325L34.5812 29.613ZM44.0762 17.0343L44.1517 16.5401L44.0762 17.0343ZM44.6409 18.7212L44.283 18.372L44.6409 18.7212ZM30.6349 14.9807L30.5594 15.4749L30.6349 14.9807ZM22.0948 1.68643L21.6421 1.47398L22.0948 1.68643ZM23.9052 1.68643L23.4526 1.89888L29.428 14.6295L29.8807 14.417L30.3333 14.2046L24.3579 1.47398L23.9052 1.68643ZM30.6349 14.9807L30.5594 15.4749L44.0007 17.5286L44.0762 17.0343L44.1517 16.5401L30.7104 14.4864L30.6349 14.9807ZM44.6409 18.7212L44.283 18.372L34.4946 28.4044L34.8524 28.7536L35.2103 29.1028L44.9988 19.0704L44.6409 18.7212ZM34.5812 29.613L34.0878 29.6935L36.3898 43.8059L36.8832 43.7254L37.3767 43.6449L35.0747 29.5325L34.5812 29.613ZM35.4125 44.7615L35.6544 44.3239L23.7257 37.7299L23.4838 38.1675L23.2419 38.6051L35.1706 45.1991L35.4125 44.7615ZM22.5162 38.1675L22.2743 37.7299L10.3456 44.3239L10.5875 44.7615L10.8294 45.1991L22.7581 38.6051L22.5162 38.1675ZM9.11674 43.7254L9.61022 43.8059L11.9122 29.6935L11.4187 29.613L10.9253 29.5325L8.62327 43.6449L9.11674 43.7254ZM11.1475 28.7536L11.5054 28.4044L1.71695 18.372L1.35907 18.7212L1.00119 19.0704L10.7897 29.1028L11.1475 28.7536ZM1.92379 17.0343L1.99931 17.5286L15.4406 15.4749L15.3651 14.9807L15.2896 14.4864L1.84828 16.5401L1.92379 17.0343ZM16.1193 14.417L16.572 14.6295L22.5474 1.89888L22.0948 1.68643L21.6421 1.47398L15.6667 14.2046L16.1193 14.417ZM15.3651 14.9807L15.4406 15.4749C15.9351 15.3994 16.3594 15.0823 16.572 14.6295L16.1193 14.417L15.6667 14.2046C15.5959 14.3555 15.4544 14.4612 15.2896 14.4864L15.3651 14.9807ZM1.35907 18.7212L1.71695 18.372C1.43274 18.0807 1.59701 17.5901 1.99931 17.5286L1.92379 17.0343L1.84828 16.5401C0.641383 16.7245 0.148577 18.1965 1.00119 19.0704L1.35907 18.7212ZM11.4187 29.613L11.9122 29.6935C11.9889 29.2236 11.8379 28.7452 11.5054 28.4044L11.1475 28.7536L10.7897 29.1028C10.9005 29.2164 10.9508 29.3758 10.9253 29.5325L11.4187 29.613ZM10.5875 44.7615L10.3456 44.3239C9.98031 44.5259 9.54303 44.2178 9.61022 43.8059L9.11674 43.7254L8.62327 43.6449C8.42168 44.8807 9.73353 45.8049 10.8294 45.1991L10.5875 44.7615ZM23.4838 38.1675L23.7257 37.7299C23.2741 37.4803 22.7259 37.4803 22.2743 37.7299L22.5162 38.1675L22.7581 38.6051C22.9086 38.5219 23.0914 38.5219 23.2419 38.6051L23.4838 38.1675ZM36.8832 43.7254L36.3898 43.8059C36.457 44.2178 36.0197 44.5259 35.6544 44.3239L35.4125 44.7615L35.1706 45.1991C36.2665 45.8049 37.5783 44.8807 37.3767 43.6449L36.8832 43.7254ZM34.8524 28.7536L34.4946 28.4044C34.1621 28.7452 34.0111 29.2236 34.0878 29.6935L34.5812 29.613L35.0747 29.5325C35.0492 29.3758 35.0995 29.2164 35.2103 29.1028L34.8524 28.7536ZM44.0762 17.0343L44.0007 17.5286C44.403 17.5901 44.5672 18.0807 44.283 18.372L44.6409 18.7212L44.9988 19.0704C45.8514 18.1965 45.3586 16.7245 44.1517 16.5401L44.0762 17.0343ZM29.8807 14.417L29.428 14.6295C29.6406 15.0823 30.0649 15.3994 30.5594 15.4749L30.6349 14.9807L30.7104 14.4864C30.5456 14.4612 30.4041 14.3555 30.3333 14.2046L29.8807 14.417ZM23.9052 1.68643L24.3579 1.47398C23.818 0.323776 22.182 0.323777 21.6421 1.47398L22.0948 1.68643L22.5474 1.89888C22.7273 1.51548 23.2727 1.51548 23.4526 1.89888L23.9052 1.68643Z" fill="#D1D1D1" mask="url(#path-2-outside-1_4558_276)"/>
<path d="M10.5875 44.7614L22.5162 38.1674C22.6624 38.0866 22.8237 38.045 22.9855 38.0427V1.11133C22.6277 1.11636 22.2723 1.30803 22.0948 1.68633L16.1193 14.4169C15.9776 14.7188 15.6948 14.9302 15.3651 14.9806L1.92379 17.0342C1.1192 17.1572 0.790661 18.1385 1.35907 18.7211L11.1475 28.7535C11.3692 28.9807 11.4698 29.2996 11.4187 29.6129L9.11674 43.7253C8.98236 44.5491 9.85692 45.1653 10.5875 44.7614Z" fill="#F4A316"/>
</svg>
