<svg width="46" height="46" viewBox="0 0 46 46" fill="none" xmlns="http://www.w3.org/2000/svg">
<path d="M29.8807 14.6595C30.0224 14.9614 30.3053 15.1728 30.6349 15.2231L44.0762 17.2764C44.8808 17.3993 45.2093 18.3807 44.6409 18.9633L34.8524 28.9962C34.6308 29.2233 34.5302 29.5422 34.5813 29.8555L36.8833 43.9676C37.0177 44.7914 36.1431 45.4076 35.4126 45.0037L23.4838 38.41C23.1827 38.2436 22.8173 38.2436 22.5162 38.41L10.5874 45.0037C9.85685 45.4076 8.9823 44.7914 9.1167 43.9676L11.4187 29.8555C11.4698 29.5422 11.3692 29.2233 11.1476 28.9962L1.35906 18.9633C0.790657 18.3807 1.11922 17.3993 1.92382 17.2764L15.3651 15.2231C15.6947 15.1728 15.9776 14.9614 16.1193 14.6595L22.0948 1.92862C22.4547 1.16181 23.5453 1.16181 23.9052 1.92862L29.8807 14.6595Z" fill="#F4A316"/>
</svg>
